<?xml version="1.0" encoding="utf-8"?>
<!-- Generator: Adobe Illustrator 25.2.0, SVG Export Plug-In . SVG Version: 6.00 Build 0)  -->
<svg version="1.1" xmlns="http://www.w3.org/2000/svg" xmlns:xlink="http://www.w3.org/1999/xlink" x="0px" y="0px"
	 viewBox="0 0 800 645.9" style="enable-background:new 0 0 800 645.9;" xml:space="preserve">
<style type="text/css">
	.st0{fill:#474647;}
	.st1{fill:#E2B4A4;}
	.st2{fill:none;}
	.st3{fill:#F5C2B0;}
	.st4{fill:#2D2D2E;}
	.st5{fill:#E9E8E5;}
	.st6{fill:#E2484A;}
</style>
<g id="BACKGROUND">
</g>
<g id="OBEJCTS">
	<path class="st0" d="M411.7,586.4c-1.3-6.9,0.2,10.5,1.3,11c1.1,0.6,10.1,1.6,10.9,1.6c0.8,0,5.6-0.5,6.5-0.7
		c0.9-0.3,0.3,2,4.1,3.1c3.8,1.1,17,1.6,22.3,1.2c5.3-0.5,10.3-1.7,10.3-3.8c0.6-2.3,1.5-5-1.6-5.7c-3-0.6-5.6-0.7-7.3-2.7
		c-1.7-2-8.8-8.8-10.3-11.3L411.7,586.4z"/>
	<path class="st0" d="M333.5,575.1c0,0-12.2,13.4-13.7,14.6c-1.6,1.2-6.1,3.3-6.1,3.3s-6-1.3-6.7,3.4c-0.7,4.7,1,3.8,1,3.8
		s10.2,2.9,19.5,2.9c9.3,0,15.9-1.9,15.9-1.9s3.8-2.8,4.1-3.1c0.3-0.3,8.4,0.9,8.4,0.9l10.8-1.2c0,0,1.8-0.1,1.6-1.3
		c-0.2-1.2,0-5.2,0-5.2s0.6-0.5,0.8-1.6L333.5,575.1z"/>
	<g>
		<path class="st1" d="M608.4,341.3c-0.2-2.3-2.3-7-2.3-7c-8.2-0.8-15.4,1.4-15.4,1.4s0,0.3,0.1,0.7c0.1,0.7,0.3,1.8,0.5,2.4
			c0.4,1,0,3.9,0,5.3c0,1.4,1,5.9,1.4,6.6c0.4,0.8,1.6,4.1,2.5,5.5c0.4,0.6,1.5,1.4,2.7,2.3c1.6,1.1,3.3,2.2,3.7,2.8
			c0.8,1,2.7,1.6,2.7,1.6s0.4,0.8,1.6,0.6c1.2-0.2,1-3.1,1-3.1s1.4,0.4,1.8-1.2c0.4-1.6-1.2-3.3-2.3-4.5c-1.2-1.2-1.6-4.1-1.6-4.1
			s1.8,1.6,3.7,1c2-0.6,1.2-3.3,1-4.3C609.2,346.2,608.6,343.7,608.4,341.3z"/>
		<g>
			<path class="st2" d="M694.3,343.1c-0.1,0.3-0.1,0.7,0,1.1C694.4,344,694.4,343.6,694.3,343.1z"/>
			<path class="st1" d="M653.4,186.5c-2.9,2.5-8,5.1-17.3,1.8c-3.3-1.2-5.4-3.7-6.9-6.4v8.9c1.6,0.9,6.8,10.8,8.8,13.3
				c0.1,0.2,0.2,0.3,0.3,0.4c0.3,0.3,0.7,0.8,1.1,1.3c1.7,2.3,3.9,5.8,5.2,5.8c1.2,0,2.9-3.4,4.6-6.3c0.5-0.8,0.9-1.6,1.4-2.2
				c0.1-0.2,0.3-0.4,0.4-0.6c1.4-1.9,2.7-3.4,3.3-10.8l0.3-6.7C654.3,185.6,653.8,186.1,653.4,186.5z"/>
			<path class="st3" d="M724.8,520c-2.1-1.6-3.5-6.6-3.9-8.4c0,0.6-0.1,0.9-0.1,0.9l-11.5,2.1l-3.2,0.6c1.4,1.4,3.9,4,4.2,5.9
				c0,0.2,0.1,0.4,0.1,0.6c0.4,2.5,1.1,5.5,1.1,5.5s0.5-0.4,1.2-0.9c3.5-2.7,10.5-2.5,14.7-2c0.3,0,0.6,0.1,0.8,0.2
				C727.8,523.6,726.8,521.5,724.8,520z"/>
			<path class="st3" d="M638.4,520.8c-2.3,0-5.8-0.6-9.1-1.4c0,0.6,0,1.4,0,1.9c0,1-1.1,4.6-1,5.6l16.1-1.1c0-0.5-0.3-4.4-0.4-6.7
				C642.7,520.1,640.8,520.8,638.4,520.8z"/>
			<path class="st3" d="M700.3,333.6c-10.2-2.9-13.6-0.7-13.6-0.7s-0.2,3.6-0.4,5.5c-0.2,1.8,0,8.2,0.9,9.8c0.9,1.6,2.4,1.5,3.5,0
				c1.1-1.5,1.6-6.9,1.6-6.9l1.8,0.4c0,0,0.1,0.8,0.2,1.5c0,0.5,0.1,0.9,0,1.1c-0.2,0.4-1.8,5.5-1.8,5.5s-2.4,1.1-4,1.1
				c-1.6,0-3.5,1.3-5.5,1.8c-2,0.5,0.2,3.1,0.2,3.1l2.4-0.4l4.5-0.2c0,0-1.8,1.1-3.1,2c-1.3,0.9,0.5,2.2,0.5,2.2s2.4-0.2,2.9,0.2
				c0.4,0.3,2.5-1.4,3.8-2.7c0.5-0.5,1-0.9,1.1-1.1c0.5-0.7,0,0,1.6-1.1c1.6-1.1,3.6-7.8,3.8-8.5c0.2-0.7,1.1-1.3,1.5-2.5
				c0.2-0.8,0.6-2.2,0.1-4.5C702.1,337.5,701.5,335.8,700.3,333.6z"/>
			<path class="st4" d="M706.1,515.1l3.2-0.6l11.5-2.1c0,0,0-0.3,0.1-0.9c0.2-2.8,0.9-11.7,0.3-14.7c-0.7-3.6-4.7-27.3-6.2-34.5
				c-1.5-7.3-5.8-29.1-8-33.4c-2.2-4.4-2.9-5.1-2.9-9.1c0-4,1.1-10.9-2.2-15.3c-3.3-4.4-4.4-5.8-4.4-8.4c0-2.5,0.4-9.8-1.1-14.9
				c-1.5-5.1-2.2-5.8-2.5-10.9c-0.2-2.6,0.1-8.2,0.3-13.6c-1.3,1.3-3.4,2.9-3.8,2.7c-0.5-0.4-2.9-0.2-2.9-0.2s-1.8-1.3-0.5-2.2
				c1.3-0.9,3.1-2,3.1-2l-4.5,0.2l-2.4,0.4c0,0-2.2-2.5-0.2-3.1c2-0.5,3.8-1.8,5.5-1.8c1.6,0,4-1.1,4-1.1s1.6-5.1,1.8-5.5
				c-0.1-0.4,0-0.8,0-1.1c-0.1-0.7-0.2-1.5-0.2-1.5l-1.8-0.4c0,0-0.5,5.5-1.6,6.9c-1.1,1.5-2.5,1.6-3.5,0c-0.9-1.6-1.1-8-0.9-9.8
				c0.2-1.8,0.4-5.5,0.4-5.5s3.5-2.2,13.6,0.7c1.2,2.2,1.8,3.9,2.1,5.3c0.6-0.7,1-1.7,1-3.1c0-7.3-0.7-23.6-0.7-32.3
				c0-8.7-2.5-34.5-4-41.1c-1.5-6.5-1.1-10.9-1.5-14.2c-0.4-3.3-5.1-19.6-5.5-23.6c-0.4-4-2.2-10.5-2.9-11.6c-0.7-1.1-2.5-3.3-4-2.9
				c-1.5,0.4-7.6-2.9-11.3-4.7c-1-0.5-2.3-1.2-3.6-1.8c0.3-1.4,1.1-4.2,1.6-5.4c0.7-1.6,1.1-5.5,0.9-8.7c-0.2-3.3-0.5-5.5-0.2-6.9
				c0.4-1.5-0.9-4.4-0.9-6.7c0-2.4-0.4-7.6-0.9-15.1c-0.5-7.4-7.3-22-15.6-27.6c-8.4-5.6-17.3-0.9-17.3-0.9
				c-13.1-2.2-21.1,24.7-21.3,26.5c-0.2,1.8-2.2,6-3.1,9.4c-0.9,3.5-0.5,8.9,0,12.5c0.5,3.6,1.6,10.2,1.6,12c0,1.8,2,5.1,2.9,6.5
				c0.2,0.3,0.4,0.8,0.5,1.5c-0.6,0.5-1.1,0.9-1.4,1.1c-1.1,0.7-7.6,2.5-12.4,4.4c-4.7,1.8-11.3,1.5-13.8,10.9
				c-2.5,9.4-6.5,57.1-6.5,60.3c0,3.3,1.1,32.7,1.1,38.9c0,6.2,2.2,17.1,2.5,18.2c0.4,1.1,1.1,3.3,1.1,3.3l2.6-0.6
				c0-0.4-0.1-0.6-0.1-0.6s6.7-2,14.4-1.3c0,0,2,4.4,2.2,6.5c0.2,2.2,0.7,4.5,0.9,5.4c0.2,0.9,0.9,3.5-0.9,4
				c-1.8,0.5-3.5-0.9-3.5-0.9s0.4,2.7,1.5,3.8c1.1,1.1,2.5,2.7,2.2,4.2c-0.4,1.5-1.6,1.1-1.6,1.1s0.2,2.7-0.9,2.9
				c-1.1,0.2-1.5-0.5-1.5-0.5s-1.8-0.5-2.5-1.5c-0.4-0.5-2-1.6-3.5-2.6c0.6,8.5,1.3,17.1,1.6,20.4c0.7,7.6,6.2,36.7,7.6,42.9
				c1.5,6.2,4,21.1,4.4,28.7c0.4,7.6,3.6,34.5,4,41.1c0.4,6.5,2.5,17.8,2.9,18.9c0.4,1.1,0.7,7.3,0.7,7.3s4.8,1.5,9.8,2.6
				c3.3,0.8,6.8,1.4,9.1,1.4c2.5,0,4.3-0.7,5.6-1.6c1.7-1.2,2.4-2.8,2.4-3.9c0-1.8,1.5-10.9,0.7-16c-0.7-5.1-4.7-7.6-5.1-14.2
				c-0.4-6.5,2.2-23.6,1.8-27.6c-0.4-4-1.1-15.3-2.5-22.5c-1.5-7.3-1.5-8-1.5-11.3c0-3.3,1.8-39.6,1.8-45.1c0-5.5,0.9-29.1,0.9-29.1
				s11.5,44.3,12.9,49.8c1.5,5.4,11.6,40.7,12,47.6c0.4,6.9,12.4,34.5,12.7,38.9c0.4,4.4,6.5,20,6.9,21.4c0.4,1.5,3.3,10.5,3.3,10.5
				l11.6-2.1c1.3,1.5,3,3.8,3.3,4.8c0.5,1.8,0.4,10.2,0.4,10.2l2.3,0.1c0,0,0-6.5,0.3-7.5c0.3-1,0.1-2.3,1.4-1.9
				c0.3,0.1,0.5,0,0.8-0.1c0-0.2-0.1-0.4-0.1-0.6C710,519.1,707.5,516.5,706.1,515.1z M662.9,169.9c-1.4,3.9-3.1,1.6-3.1,1.6
				s-2.5,9.2-5.1,13.4l-0.3,6.7c0-0.1,0-0.1,0-0.2c0,0,2-1.4,3.4,5c0,0.1,0,0.2,0,0.2c0.3,1.4,0.5,3.5,0.6,5.6
				c0,0.8,0.1,1.7,0.1,2.5c0.1,4.4,0.1,8.5,0.1,8.5s-0.8-1.3-2.1-1.9c-0.7,12.2-1.7,27.8-2.5,29.9c-1.5,3.6-4.4,16.7-4.4,16.7
				s-8.4-19.3-9.4-24.3c-0.8-3.6-4.8-15.3-7.3-23.1c-0.5-0.1-1,0.1-1.3,1.2c-0.5,1.7-1.5-0.6-2.4-3.7c-0.2-0.5-0.3-1.1-0.5-1.7
				c-1-3.4-1.8-7.1-2.1-7.8c-0.3-0.8,0-2.3,0.5-3.7c0.6-1.7,1.4-3.4,2-4c0.1-0.1,0.2-0.1,0.4,0v-8.9c-2.7-5-3-10.8-3.2-10.4
				c-1.1,1.7-3.1-0.6-3.4-1.7c-0.1-0.6-0.8-1.2-1.3-5.3c1.7-1.1,4.4-3.1,5.5-5.3c1.6-3.3,1.5-10.4,2.9-12c1.1-1.2,4-4.6,5.3-7
				c0.5-0.2,1.1-0.4,1.7-0.6c3,3.9,11.9,15.4,16.8,18.6c6,4,9.1,5.3,9.1,5.3S663.8,167.5,662.9,169.9z"/>
			<path class="st4" d="M728.2,524.4c-0.3-0.1-0.5-0.2-0.8-0.2c-4.2-0.6-11.2-0.8-14.7,2c-0.6,0.5-1.1,1-1.5,1.7c-1,4,1.8,4,1.8,4
				s10.9,1.9,15.1,1.9c4.2,0,5.6-0.7,5.6-0.7S732.5,525.9,728.2,524.4z"/>
			<path class="st4" d="M644.4,525.9l-16.1,1.1l-0.5,0c0,0-1.1,2.1-0.2,5.8c0.9,3.6,3.6,2.4,3.6,2.4c0.5,0,12.9,0.2,13.6-1.6
				c0.7-1.8,1.3-4.7,0.9-5.6C645.4,527,644.4,525.9,644.4,525.9z"/>
			<path class="st5" d="M658.5,204.8c0-0.8-0.1-1.7-0.1-2.5c-0.1-2.2-0.3-4.2-0.6-5.6c0-0.1,0-0.2,0-0.2c-1.4-6.4-3.4-5-3.4-5
				c0,0.1,0,0.1,0,0.2c-0.6,7.4-1.9,8.9-3.3,10.8c-0.1,0.2-0.3,0.4-0.4,0.6c-0.4,0.7-0.9,1.4-1.4,2.2c-1.7,2.9-3.4,6.3-4.6,6.3
				c-1.3,0-3.5-3.5-5.2-5.8c-0.4-0.5-0.8-1-1.1-1.3c-0.1-0.1-0.2-0.2-0.3-0.4c-2-2.5-7.1-12.5-8.8-13.3c-0.1-0.1-0.3-0.1-0.4,0
				c-0.6,0.6-1.4,2.3-2,4c-0.5,1.5-0.8,3-0.5,3.7c0.3,0.8,1.1,4.5,2.1,7.8c0.2,0.6,0.3,1.1,0.5,1.7c1,3.1,1.9,5.4,2.4,3.7
				c0.3-1,0.8-1.3,1.3-1.2c2.6,7.9,6.6,19.6,7.3,23.1c1.1,5.1,9.4,24.3,9.4,24.3s2.9-13.1,4.4-16.7c0.9-2.2,1.9-17.7,2.5-29.9
				c1.3,0.7,2.1,1.9,2.1,1.9S658.7,209.2,658.5,204.8z"/>
			<path class="st3" d="M653.7,158c-5-3.3-14-14.9-17-18.8c-0.6,0.2-1.1,0.4-1.7,0.6c-1.3,2.4-4.3,5.8-5.4,7.1
				c-1.5,1.7-1.3,8.8-2.9,12.1c-1.1,2.2-3.8,4.2-5.5,5.3c0.5,4.1,1.1,4.7,1.3,5.3c0.2,1.1,2.3,3.5,3.4,1.7c0.3-0.4,0.5,5.4,3.2,10.5
				c1.5,2.8,3.7,5.3,7,6.5c9.4,3.3,14.5,0.7,17.4-1.8c0.4-0.4,0.8-0.9,1.2-1.6c2.6-4.2,5.1-13.5,5.1-13.5s1.7,2.4,3.2-1.6
				c0.9-2.4-0.2-6.4-0.2-6.4S659.8,162,653.7,158z"/>
		</g>
		<g>
			<path class="st0" d="M127.4,518.1c0,0-8.8-0.2-16.2-0.2s-12.2-0.8-12.2-0.8l-5.7,8.8c0,0-1,4.2-2.6,5.7c-1.6,1.6,0.5,3.1,0.5,3.1
				s6.3,1,11.5,1c5.2,0,14.1-3.7,14.1-3.7h3.6l4.7-2.1C126.7,526.3,127.4,518.1,127.4,518.1z"/>
			<path class="st0" d="M191.6,517.9c0,0-9.9-1.2-14.4-1s-8.8,4.1-8.8,4.1c-0.5,0.8-0.5,5-0.5,5l0.5,3.1c0,0,3.4,1.3,5.7,1.3
				c2.3,0,2.3-0.3,3.7,0.8c1.3,1,5.2,4.4,10.4,4.7c5.2,0.3,11.5-0.8,12-1.6c0.5-0.8,0.5-1.3-0.3-2.9c-0.8-1.6-0.5-2.6-2.1-4.4
				c-1.6-1.8-4.2-6.5-5.2-7.8C191.6,517.9,192.9,519.4,191.6,517.9"/>
			<g>
				<path class="st6" d="M157.3,204.3c-0.9-1-1.9-1.9-3-2.8c-0.8-0.7-1.5-1.3-2.3-1.9c-0.7-0.6-1.4-1.1-2.1-1.5
					c-0.6,0.4-1.2,1-1.9,1.6c-0.2,0.2-0.4,0.4-0.6,0.6c-0.9,1-1.8,2.1-2.6,3.3l4.7,4.7l-5.5,15.8l2.9,12.6l3,13c0,0,0.5-1.6,1.2-4.2
					c1.6-5.6,4.5-16,7.3-26.1l-4.5-12.1L157.3,204.3z"/>
				<path class="st1" d="M162.5,184.9l-1-11.2c-0.5,2.6-1.6,6.9-3.1,9.4c-2.2,3.7-10.8,6.5-15,5.8c-3.9-0.6-6.4-3.3-7.1-4.6
					l-0.2,4.2c0-0.1,0.1-0.2,0.1-0.2s7.2,9.6,14,9.4C156.9,197.5,161.8,187.7,162.5,184.9z"/>
				<path class="st1" d="M173.1,282.5c-2.2,0-2.4,0.1-3.7,0.1c-1.4,0-6.2,1-7,1.2c-0.7,0.2-2.4,1.7-3.4,1.7c-1,0-3.5,1.5-4.6,2
					c-1.1,0.5-2.7,0.5-4.5,0.2c-1.7-0.2-1.5,2.2-1.5,2.2s0,0-0.7,0c-0.7,0-1,0.5-1,1.2c0,0.7,2.2,1.2,2.5,1.7
					c0.1,0.2,0.3,0.4,0.5,0.7c0.2,0.2,0.3,0.4,0.4,0.5c0.2,0.3,0.3,0.6,0.3,0.8c0,0.6,0.5,1.2,0.9,1.4c0.4,0.1,2.6,0.6,2.6,0.6
					s0.2,0.7,0.4,1.1c0.1,0.4,0.7,0.9,1.1,1.2c0.4,0.4,1.1,1.7,1.1,1.7s1.2,2.1,1.6,2.7c0.4,0.6,1.5,1.7,4.2,2
					c2.7,0.2,6.6-0.1,9.6-1.2c3-1.1,8.7-7.5,8.7-7.5s2.6,0,3.1-1.4c0.5-1.4-3.6-13.7-3.6-13.7S175.4,282.5,173.1,282.5z"/>
				<path class="st3" d="M150.1,294.3c-0.1-0.2-0.2-0.4-0.4-0.5c-0.7-0.7-2-1.3-2.8-1.9c-1.1-0.7,0.4-2.6,0.4-2.6s-3.7-1.4-4.5-2
					c-0.7-0.6-1.6-0.6-2.2-0.7c-0.6-0.1-2.9-0.4-4.4-0.5c-1.5-0.1-4.1-0.1-4.9-0.1c-0.7,0-1.4-0.4-6.2,1.6c-4.9,2-6.4,12.2-6.4,12.2
					s3.5,3.1,4.2,4c0.7,0.9,2.1,2,3.5,2.1c1.4,0.1,3.2,1.4,4.6,2.4c1.4,1,2.9,2.1,5.5,2.1c2.6,0,4,0,4.7-0.6
					c0.8-0.6,0.5-1.1,1.7-1.7c1.2-0.6-0.1-2,0.9-2.2c1-0.2,2.6-0.6,3-3c1.2,0,1.6-2.6,2-4.1c2-0.1,1.7-3.1,1.4-4.1
					C150.2,294.4,150.1,294.4,150.1,294.3z"/>
				<path class="st3" d="M164.4,157.9c0,0.8-0.1,1.4-0.3,1.8c-0.4,0.9-0.4,1.6-1.6,3.9c-1.2,2.3-2.1,1.6-2.1,1.6s-0.2-3.5-0.4-4.2
					c-0.2-0.7-1.8-3.4-2.3-5c-0.5-1.6-1.8-6.7-2.3-6.9c-0.5-0.2-6.4,0.4-9,0.4c-2.7,0-6.7,0.5-11,0.4c-4.2-0.2-5.6-0.8-5.6-0.8
					s-0.6,4.2-0.8,5.2c-0.2,1.1-0.4,6.2-0.2,8c0.2,1.8,0.7,6,0.7,6s-1.2,0.4-1.8-0.2c-0.3-0.3-0.9-1.5-1.6-2.7
					c-0.1,0.1-0.2,0.4-0.2,0.8c0,0,0.4,2.1,0.9,4.2c0.5,2.1,1.9,5.5,2.3,6.2c0.4,0.7,1.6,2.1,2.1,1.8c0.5-0.4,3.7,6,4.2,7.3
					c0,0.1,0.1,0.1,0.1,0.2c0.7,1.4,3.3,4.2,7.5,4.9c4.4,0.7,13.6-2.3,15.9-6.2c1.6-2.6,2.7-7.3,3.3-10c0.3-1.3,0.4-2.2,0.4-2.2
					s3.9-0.4,4.1-2.8c0.2-2.5,0.2-8.5,0.2-9C167.1,159.9,166.5,157.1,164.4,157.9z"/>
				<path class="st4" d="M154.3,201.5c1,0.9,2,1.8,3,2.8c1.7,1.8,3.2,3.7,3.9,5.3c-0.4-1.1-1.9-3.3-3.7-5.5
					c-0.9-1.1-1.9-2.2-2.9-3.1c-0.6-0.5-1.1-1-1.6-1.4c-1.2-0.9-2.3-1.5-3-1.4c0.6,0.4,1.3,0.9,2.1,1.5
					C152.8,200.2,153.6,200.8,154.3,201.5z"/>
				<path class="st4" d="M98.7,516.4c0,3.3,2.4,2.6,4.8,2.6c2.4,0,14.1,0.5,17.9,0.7c3.8,0.2,5.5,3.6,5.5,2.9c0-0.7,1.2-4.8,3.1-8.6
					c1.9-3.8,2.6-9.7,2.6-9.7c1-5.5,3.5-16.5,4.5-23.5c1-7,4.5-51.4,4.5-57.4c0-6,6.5-58.9,6.5-58.9s2.5,8.5,2.5,12.5
					c0,4,5,37.9,5,41.4c0,3.5,3.5,42.9,3.5,49.4c0,6.5,1.5,28.9,2.5,33.4c1,4.5,4,12,4,12c0.1,4.1,1.3,10.5,3.7,8.4
					c2.4-2.2,9.8-2.6,13.9-2.6s8.9-0.7,8.9-0.7v-4.5c0,0,2-6,2.5-8c0.5-2-2-12.5-2-16.5c0-4-0.5-7-0.5-10.5c0-3.5-0.5-18.5-0.5-25.5
					c0-7,0-49.9,0-51.4c0-1.5-0.5-42.9-0.5-42.9l8.5-1.5c0,0-0.5-8.5-0.5-10.5c0-2-4-46.9-4-46.9s4-3.5,6.5-4.5
					c2.5-1,14.5-12,14.5-14c0-2-3-17.5-4-23c-1-5.5-7-56.4-7-56.4s-7-5.6-22.5-8.1c-15.5-2.5-17-6.9-17-6.9s0.1,1,0.1,1.9
					c0,0.9-0.1,3.5-0.1,5.3c0,0.8-0.5,3.4-1.3,6.3c-0.8,2.8-1.8,6-2.7,8.3c-0.1,0.2-0.2,0.4-0.3,0.6c0,0,0,0,0,0c0,0,0,0,0-0.1
					c-0.8,3.1-1.7,6.4-2.7,9.7c-2.8,10.1-5.7,20.5-7.3,26.1c-0.8,2.6-1.2,4.2-1.2,4.2l-3-13l-2.9-12.6l-3.3-14.2
					c0.8-1.4,2.4-3.9,4.1-6.3c0.9-1.2,1.7-2.3,2.6-3.3c0.2-0.2,0.4-0.4,0.6-0.6c0.7-0.7,1.3-1.3,1.9-1.6c-0.7,0.1-1.5,0.7-2.4,1.7
					c-0.1,0.1-0.2,0.2-0.3,0.3c-0.8,0.9-1.7,2.1-2.6,3.4c-1.6,2.4-3.1,5-3.9,6.4c-0.4,0.7-0.7,1.2-0.7,1.2c-0.9-0.8-1.7-4.7-2.4-9
					c-0.9-5.5-1.5-11.5-1.7-12c0-0.1,0-0.1,0-0.2l-4.9,4.4c0,0-7.5,4.5-10.5,5c-3,0.5-13.5,5.5-18,6.5c-4.5,1-4,4.5-4,4.5s0,3,0,5
					s-0.5,3-2,7c-1.5,4-5,17.5-6,23c-1,5.5-6,21-7.5,23.5c-1.5,2.5-1.5,5.5-0.5,9c1,3.5,7,14,10.5,16c3.5,2,14,12,14,12
					s-0.5,2.5-0.5,5.5c0,3,1,4,1,4l-3,34.4l1.5,13.5c0,0-0.5,9-0.5,15c0,6,0,77.9-0.5,85.3c-0.5,7.5-3.3,36.8-5.3,41.3
					C99.9,504.7,98.7,513.1,98.7,516.4z M183.9,295.9c-0.5,1.4-3.1,1.4-3.1,1.4s-5.7,6.4-8.7,7.5c-3,1.1-6.9,1.5-9.6,1.2
					c-2.7-0.3-3.9-1.4-4.2-2c-0.4-0.6-1.6-2.7-1.6-2.7s-0.7-1.4-1.1-1.7c-0.4-0.4-1-0.9-1.1-1.2c-0.1-0.4-0.4-1.1-0.4-1.1
					s-2.2-0.5-2.6-0.6c-0.4-0.1-0.9-0.7-0.9-1.4c0-0.2-0.1-0.5-0.3-0.8c0,0.1,0.1,0.1,0.1,0.2c0.4,1,0.6,4-1.4,4.1
					c-0.4,1.5-0.7,4.1-2,4.1c-0.4,2.4-2,2.7-3,3c-1,0.3,0.4,1.6-0.9,2.2c-1.2,0.6-1,1.1-1.7,1.7c-0.7,0.6-2.1,0.6-4.7,0.6
					c-2.6,0-4.1-1.1-5.5-2.1c-1.4-1-3.2-2.2-4.6-2.4c-1.4-0.1-2.7-1.2-3.5-2.1c-0.7-0.9-4.2-4-4.2-4s1.5-10.2,6.4-12.2
					c4.9-2,5.5-1.6,6.2-1.6c0.7,0,3.4,0,4.9,0.1c1.5,0.1,3.7,0.4,4.4,0.5c0.6,0.1,1.5,0.1,2.2,0.7c0.8,0.6,4.5,2,4.5,2
					s-1.5,1.9-0.4,2.6c0.8,0.6,2.1,1.2,2.8,1.9c-0.2-0.2-0.4-0.5-0.5-0.7c-0.2-0.5-2.5-1-2.5-1.7c0-0.7,0.3-1.2,1-1.2
					c0.7,0,0.7,0,0.7,0s-0.2-2.5,1.5-2.2c1.7,0.3,3.4,0.3,4.5-0.2c1.1-0.5,3.6-2,4.6-2c1,0,2.6-1.5,3.4-1.7c0.8-0.3,5.6-1.2,7-1.2
					c1.4,0,1.5-0.1,3.7-0.1c2.2,0,7.1-0.4,7.1-0.4S184.4,294.5,183.9,295.9z"/>
				<path class="st4" d="M126.3,165.3c0.6,1.3,1.3,2.5,1.6,2.7c0.5,0.5,1.8,0.2,1.8,0.2s-0.5-4.2-0.7-6c-0.2-1.8,0-6.9,0.2-8
					c0.2-1.1,0.8-5.2,0.8-5.2s1.3,0.6,5.6,0.8c4.2,0.2,8.3-0.4,11-0.4c2.7,0,8.5-0.5,9-0.4c0.5,0.2,1.8,5.3,2.3,6.9
					c0.5,1.6,2.1,4.2,2.3,5c0.2,0.7,0.4,4.2,0.4,4.2s0.9,0.7,2.1-1.6c1.2-2.3,1.2-3,1.6-3.9c0.2-0.4,0.2-1.1,0.3-1.8
					c0.1-1,0.1-2.1,0.1-3c0-1.6-0.7-3.5-0.7-5.3c0-1.8,0.5-5.3-2.5-6.9c-3-1.6-4.1-3.4-5.8-4.2c-1.8-0.9-6-5.8-13.4-4.1
					c-7.4,1.8-12.6,8-13.6,8.5c-1.1,0.5-3.9,2.7-4.1,6.5c-0.2,3.9,0,11.7,0.5,12.9C125.1,162.9,125.7,164.1,126.3,165.3z"/>
				<path class="st5" d="M140.8,210l3.3,14.2l5.5-15.8l-4.7-4.7C143.2,206.1,141.6,208.6,140.8,210z"/>
				<path class="st5" d="M162.5,184.8c0,0,0,0.1,0,0.1c-0.7,2.8-5.6,12.6-12.3,12.9c-6.8,0.2-14-9.4-14-9.4s0,0.1-0.1,0.2
					c-0.1,0.3-0.3,0.9-0.2,1.5c0,0.1,0,0.1,0,0.2c0.1,0.5,0.8,6.5,1.7,12c0.7,4.2,1.5,8.2,2.4,9c0,0,0.2-0.5,0.7-1.2
					c0.8-1.5,2.3-4.1,3.9-6.4c0.8-1.2,1.7-2.4,2.6-3.4c0.1-0.1,0.2-0.2,0.3-0.3c0.9-1,1.8-1.6,2.4-1.7c0.8-0.1,1.9,0.5,3,1.4
					c0.5,0.4,1.1,0.9,1.6,1.4c1,0.9,2,2,2.9,3.1c1.8,2.2,3.3,4.4,3.7,5.5c-0.7-1.6-2.2-3.5-3.9-5.3l-3.2,3.1l4.5,12.1
					c0.9-3.3,1.8-6.6,2.7-9.7c0,0,0,0,0,0.1c0,0,0,0,0,0c0.1-0.2,0.2-0.4,0.3-0.6c1-2.3,2-5.5,2.7-8.3c0.8-2.9,1.3-5.5,1.3-6.3
					c0-1.7,0.1-4.4,0.1-5.3c0-0.9-0.1-1.9-0.1-1.9S164.7,184.7,162.5,184.8z"/>
			</g>
		</g>
	</g>
	<g>
		<path class="st2" d="M318.1,325.5c0,0,0-0.2,0-0.6C318,325.1,318,325.3,318.1,325.5z"/>
		<path class="st2" d="M287.8,184l0.4,0c0-0.3,0-0.6,0.1-0.9c0,0-0.1,0-0.1,0C288,183.5,287.9,183.8,287.8,184z"/>
		<path class="st2" d="M268.6,101.5c0.2,0.7,0.2,1.8,0.2,2.9c0.5-0.2,1-0.4,1.4-0.6C269.2,102.5,268.6,101.5,268.6,101.5z"/>
		<path class="st6" d="M287,185c-2.7,1.1-17.5,2-20.2,1.6c-2.7-0.4-5.8-1.4-6.9-2.3c-0.3-0.2-1-0.5-1.7-0.8
			c4.1,19.6,14.9,58.6,14.9,58.6s13.9-41.7,15.2-58l-0.4,0C287.6,184.5,287.3,184.8,287,185z"/>
		<path class="st1" d="M287,161.4c-0.2-0.8-0.4-1.3-0.4-1.3l0.8-10.9c-1.9,2.6-3.9,4.4-4.2,4.8c-0.7,0.8-1.7,3.7-8.6,3.4
			c-6.9-0.3-6.5-3.7-10.3-6.1c-1-0.6-1.9-1.6-2.6-2.7c-0.2,2.8-0.6,9.8-0.9,10.6c0,0,0,0.1-0.1,0.1l-0.1,0.8c0,0-4.7,2.6-4,13.4
			c0,0.4,0,0.9,0.1,1.3c0.2,1.7,0.6,4.4,1.3,7.6c0.1,0.3,0.1,0.7,0.2,1c0.8,0.3,1.4,0.6,1.7,0.8c1.1,0.8,4.2,1.8,6.9,2.3
			c2.7,0.4,17.5-0.4,20.2-1.6c0.3-0.1,0.6-0.5,0.8-0.9c0.1-0.2,0.2-0.5,0.3-0.8c0.1-0.2,0.1-0.5,0.2-0.7c0.5-15.1-1.7-21.3-1.7-21.3
			C286.7,161.3,286.8,161.3,287,161.4z"/>
		<path class="st1" d="M321.4,298.4c0,0-2.3,2.3-3.8,2.3c-1.5,0-3.4,0-5.3,0c-1.9,0-1.9,1.9-4.5,3c-2.6,1.1-6,2.3-6.4,3.4
			c-0.4,1.1,1.9,2.6,4.9,2.6c3,0,5.3-1.9,5.3-1.9s3,4.1,4.5,7.2c1.2,2.5,1.7,8.1,1.8,9.9c0,0.4,0,0.6,0,0.6s3-3.4,4.9-4.9
			c1.9-1.5,2.3-4.9,4.5-7.2c1.1-1.1,1.5-3.2,1.5-5.3c0.1-2.4-0.2-4.8-0.4-5.6C328.2,301,321.4,298.4,321.4,298.4z"/>
		<path class="st3" d="M284.9,559.9c-0.4,0-0.8-0.1-1.3-0.1c-5-0.4-13.8-1.3-14.8-1.4c-0.6,3.1-1.7,9-2,9.8
			c-0.1,0.4-0.4,1.6-0.7,2.9c0.9,1.1,2.7,3.3,3.7,3.5c5,1.5,3.9,1.1,8.8,1.1c1.6,0,3.1-0.2,4.5-0.5c1.7-0.3,3.1-0.7,4-1
			c0.6-4.2,1.2-12.6,1.2-13.6c0-0.1-0.1-0.3-0.2-0.5C287.4,560.1,286.4,560,284.9,559.9z"/>
		<path class="st3" d="M199.7,557.3c0,0-0.1-0.1-0.1-0.1c-0.7,3.4-3,14.7-2.9,19.1c0.3,0.4,1.4,1,5.3,1c6.4,0,12.4,0.4,12.4,0.4
			s1.5-7.5,1.5-10.6c0-3,1.9-7.9,1.9-7.9C211.4,561.8,200.9,558,199.7,557.3z"/>
		<path class="st3" d="M271,317.6c-1.1-0.4,3-1.9,3-3.8c2.6-1.5,4.1-5.3,2.6-5.7c1.5-1.9,1.5-5.3,0.4-6c-1.1-0.8,6,0,6.4-3.4
			c0.4-3.4-7.5-3.4-8.7-3.4c-1.1,0-5.3-1.1-6.4-1.5c-1.1-0.4-3-0.8-5.7-0.4c-2.6,0.4-6,2.3-8.7,2.3c-2.6,0-4.5-1.1-6-1.9
			c-1.5-0.8-7.9,2.3-9.4,12.1c0,0,12.1,10.9,15.8,12.8c3.8,1.9,8.7,2.3,11.7,2.3C269.1,321,272.1,318,271,317.6z"/>
		<path class="st4" d="M324.5,272.8c0-4.9-0.4-13.2-0.4-15.5c0-2.3-2.3-28.3-2.3-33.2c0-4.9,1.1-24.5,1.1-26.8
			c0-2.3-2.3-19.2-6.4-20.3c-4.1-1.1-4.1-1.5-7.5-2.3c-2.1-0.5-4.9-1.5-7-2.4c-1.6-4.7-3.9-11.3-4.3-15.4
			c-0.6-6.5-0.3-13.8-0.3-16.7c0-1.1-0.5-2.5-1-3.7c-0.1,0.4-0.1,0.9-0.2,1.3c-0.4,2.4-3.3,2.8-4.8,1.7c-0.1,3.6-2,7-4,9.6
			l-0.8,10.9c0,0,0.2,0.5,0.4,1.3c-0.1-0.1-0.3-0.1-0.4-0.2c0,0,2.2,6.2,1.7,21.3c0,0.2-0.1,0.5-0.2,0.7c0,0,0.1,0,0.1,0
			c0,0.3,0,0.6-0.1,0.9c-1.3,16.3-15.2,58-15.2,58s-10.8-39-14.9-58.6c-0.1-0.4-0.1-0.7-0.2-1c-0.7-3.3-1.1-5.9-1.3-7.6
			c0-0.5-0.1-0.9-0.1-1.3c-0.6-10.8,4-13.4,4-13.4l0.1-0.8c0,0,0.1-0.1,0.1-0.1c0.3-0.8,0.8-7.8,0.9-10.6c-2.1-3.1-3.2-7.6-3.6-10
			c-2.3,0.6-3.4-0.6-3.9-2c-0.1,3.2-0.3,6.3-1.1,8.3c-2.3,6.2-2.5,7.9-2.5,11.3c0,1.7-0.4,5.2-0.8,8.3c-1.3,1-2.6,1.9-3.6,2.4
			c-3.4,1.5-19.2,2.6-22.2,6.4c-3.8-0.4-5.7,3-7.9,11.7c-2.3,8.7-12.4,47.5-12.8,50.9c-0.4,3.4-3.4,11.7-4.1,13.9
			c-0.8,2.3-1.5,5.3-0.8,7.5c0.8,2.3,0.4,5.3,0.8,8.3c0.4,3,3.8,9.8,5.7,12.4c1.9,2.6,7.2,11.7,9.4,13.6c2.3,1.9,7.2,7.5,7.2,7.5
			s3,9.4,3,13.2c0,3.8-5.7,16.6-6.4,20.3c-0.8,3.8-3,33.2-3.4,42.2c-0.4,9-4.5,31.3-4.5,38.4c0,7.2-0.4,16.6-0.4,19.2
			c0,2.6-3.4,18.8-4.1,27.5c-0.8,8.7-4.9,30.9-5.3,37.7c-0.4,6.8-2.3,29.4-2.3,36.2c0,6.8-0.4,7.2-0.8,13.2
			c-0.4,5.8,1.4,9.2,2.5,10.1c0,0,0.1,0.1,0.1,0.1c1.1,0.8,11.7,4.5,18.1,1.9c0,0-1.9,4.9-1.9,7.9c0,3-1.5,10.6-1.5,10.6
			s-6-0.4-12.4-0.4c-3.9,0-5-0.5-5.3-1c-0.1-0.2-0.1-0.3-0.1-0.4c-0.3,0.6-1.3,2.8-3,4.8c-1.9,2.3-1.8,2.3-1.8,4.1
			c0,1.9,2.9,3,4.4,3.4c1.5,0.4,16.6-0.4,19.2-1.9c2.6-1.5,0.4-7.2,1.5-10.2c1.1-3,0.8-6.4,2.6-9.4c1.9-3,2.6-4.5,4.5-7.5
			c1-1.6,0.6-3.4,0-4.8c3.3-3.6,5.6-8.2,5.6-11.1c0-4.5-1.1-13.9-1.1-21.1c0-7.2,2.6-40.3,3-44.8c0.4-4.5,1.1-15.1,1.5-17.7
			c0.4-2.6,1.9-5.3,2.3-9c0.4-3.8,5.7-9,5.7-15.4c0-6.4,0.4-10.2,2.3-15.8c1.9-5.7,11.3-45.6,13.6-49.4c2.3-3.8,4.1-11.7,5.7-13.6
			c1.5-1.9,6-6.8,6-6.8s4.9,14.7,6,25.6c1.1,10.9,2.3,51.2,2.3,58c0,6.8-0.4,15.8-0.4,20.4c0,4.5,0,7.9,0.4,11.7
			c0.4,3.8-0.4,9.8-0.8,16.6c-0.4,6.8-2.6,18.8-3,26.8c-0.4,7.9-2.6,18.8-3.4,25.2c-0.8,6.4-1.1,12.1-1.5,15.8
			c-0.4,3.8,0.4,8.7,0.4,8.7s0,0,0.1,0c1,0.1,9.8,1,14.8,1.4c0.5,0,0.9,0.1,1.3,0.1c1.5,0.1,2.5,0.2,3.2,0.2
			c0.1,0.2,0.2,0.4,0.2,0.5c0,1-0.6,9.4-1.2,13.6c-0.9,0.3-2.4,0.7-4,1c-1.4,0.3-3,0.5-4.5,0.5c-4.9,0-3.8,0.4-8.8-1.1
			c-1-0.3-2.8-2.5-3.7-3.5c-0.3-0.4-0.5-0.6-0.5-0.6s-3,6.4-3,9.8c0,1.1,0.4,4.9,2.3,5.7c1.9,0.8,4.6,3.6,7.2,3.6
			c2.6,0,10.1-2.4,11.6-2.4c1.5,0,3.8-0.4,4.1-2.3c0.4-1.8,0.4-5.5,0.4-6c0.4-3.3,1-7.6,1.2-8.5c0.4-1.5,0.9-11.4,0.9-12.2
			c1.9-6.5,7.3-25.7,7.3-31.3c0-6.8,4.5-30.9,6-41.1c1.5-10.2,3-15.8,3-20c0-4.1,0-8.3,0-13.6c0-5.3,0.8-25.2,2.3-33.2
			c1.5-7.9-0.8-25.6,1.5-33.9c2.3-8.3,5.3-23.4,5.7-27.1c0.4-3.8,3-12.1,3-16.6c0-4.5-0.4-12.8-1.1-15.8c0-0.2-0.1-0.4,0-0.6
			c-0.1-1.9-0.6-7.4-1.8-9.9c-1.5-3-4.5-7.2-4.5-7.2s-2.3,1.9-5.3,1.9c-3,0-5.3-1.5-4.9-2.6c0.4-1.1,3.8-2.3,6.4-3.4
			c2.6-1.1,2.6-3,4.5-3c1.9,0,3.8,0,5.3,0c1.5,0,3.8-2.3,3.8-2.3s6.8,2.6,7.2,4.1c0.2,0.8,0.5,3.2,0.4,5.6c1.1-2.6,2-5.2,1.9-6.7
			C330.5,297.6,324.5,277.7,324.5,272.8z M277,302.2c1.1,0.8,1.1,4.1-0.4,6c1.5,0.4,0,4.1-2.6,5.7c0,1.9-4.1,3.4-3,3.8
			c1.1,0.4-1.9,3.4-4.9,3.4c-3,0-7.9-0.4-11.7-2.3c-3.8-1.9-15.8-12.8-15.8-12.8c1.5-9.8,7.9-12.8,9.4-12.1c1.5,0.8,3.4,1.9,6,1.9
			c2.6,0,6-1.9,8.7-2.3c2.6-0.4,4.5,0,5.7,0.4c1.1,0.4,5.3,1.5,6.4,1.5c1.1,0,9,0,8.7,3.4C283,302.2,275.9,301.4,277,302.2z"/>
		<path class="st4" d="M196.7,575.9c0-0.1,0.1-0.1,0.1-0.1S196.7,575.8,196.7,575.9z"/>
		<path class="st3" d="M296.8,129.8c-0.2,0.7-0.6,1.1-1,1.3c-0.8,0.3-1.5-0.4-0.9-1.7c0.9-2.1-0.8-5.7-2.4-6.5
			c-0.5-0.2-0.9-0.6-1.2-1.2c-0.8-1.3-1.4-3.6-2.9-7.2c-2.1-5.1-7.5-6-12.5-7.7c-2.7-0.9-4.7-2.8-6-4.4c-0.5,0.2-1,0.4-1.5,0.6
			c-0.1,1.9-0.5,3.7-1.4,4.1c-1.5,0.6-2.1,1.5-2.4,3.6c-0.3,2.1-3.8,7.5-6.5,9.2c-0.8,0.5-1.3,1.1-1.4,1.8c-0.4,1.5,0.4,3.4,0.4,5.3
			c0,2.7-1.2,4.5-1.2,4.5s-1.2-3.3-1.8-5.3c-0.3-0.8-0.8-1.5-1.3-2c-0.2,0.1-0.4,0.3-0.5,0.6c-0.3,0.5-0.5,1.3-0.4,2.5
			c0.1,3.3,0.5,5.4,0.5,6.8c0,0.6,0,2,0.5,3.2c0.5,1.5,1.7,2.8,4.2,2.2c0.4,2.6,1.6,7.3,3.9,10.7c0.8,1.2,1.7,2.2,2.8,2.9
			c4.1,2.6,3.6,6.2,11,6.5c7.4,0.3,8.4-2.7,9.2-3.6c0.4-0.4,2.4-2.4,4.5-5.1c2.1-2.8,4.1-6.4,4.2-10.2c1.7,1.2,4.7,0.8,5.1-1.8
			c0.1-0.4,0.1-0.9,0.2-1.4c0.3-2.2,0.4-4.6,0.7-5.8c0.1-0.7,0.5-2.4,0.5-3.8C298.2,127.9,297.1,128.5,296.8,129.8z"/>
		<path class="st4" d="M252,123.4c0,0.4,0.1,0.8,0.1,1.3c0.2-0.3,0.4-0.5,0.5-0.6c0.5,0.6,1.1,1.2,1.3,2c0.6,2,1.8,5.3,1.8,5.3
			s1.2-1.8,1.2-4.5c0-1.9-0.8-3.7-0.4-5.3c0.2-0.7,0.6-1.3,1.4-1.8c2.7-1.7,6.2-7.1,6.5-9.2c0.3-2.1,0.9-3,2.4-3.6
			c0.9-0.4,1.3-2.2,1.4-4.1c0.1-1.2,0-2.4-0.2-3.1c0,0,0.6,1.1,1.7,2.5c1.3,1.6,3.3,3.5,6,4.4c5,1.7,10.4,2.6,12.5,7.7
			c1.5,3.6,2.1,5.9,2.9,7.2c0.3,0.6,0.7,1,1.2,1.2c1.7,0.8,3.3,4.4,2.4,6.5c-0.6,1.4,0.2,2,0.9,1.7c0.4-0.2,0.8-0.6,1-1.3
			c0.4-1.4,1.4-1.9,2.2-2.1c0.4-0.1,0.7-0.1,0.7-0.1s3-4.4,1.4-10.7c-1.7-6.3-1.7-5.7-2.4-9.9c-0.8-4.2-3.9-8.1-6.8-9.2
			c-2.9-1.1-5.4-3.3-7.4-4.1c-2-0.8-6.2-1.5-8.3-1.4c-2.1,0.2-6.6,3-6.6,3s-2-2.3-5.7-0.9c-3.8,1.4-8.1,5.7-9,8.7
			c-0.9,3-2.3,9-2.9,11.7c-0.6,2.7-1.2,5.1-0.9,6.8C251.1,122.4,251.5,122.9,252,123.4z"/>
	</g>
	<g>
		<path class="st1" d="M514.5,168.8c0.2,4,0.5,9.2,0.5,9.2s2,0.9,3.7,2.6c1.6,1.6,8.4,15.2,8.4,15.2s5.7-8.6,7.7-12.6
			c2-4,5.5-4.4,6-6.8c0.4-1.6,0.8-5.4,1-9.2c0.1-1.8,0.2-3.5,0.2-5.1c0-4.6,0-7.7,0.1-8.2c0,0,0,0,0,0l0,0l0-4
			c-0.4,0.8-0.9,1.6-1.4,2.3c-4.2,6.1-9.7,8.9-10.9,8.9c-1.8,0-5.7-0.4-8.1-2.6c-2.4-2.2-4.4-3.8-4.8-4.6c-0.9-0.9-1.6-1.9-2.3-2.9
			c-0.1,1.9-0.2,4.1-0.4,6.5c0,2.1,0.1,5.7,0.1,7.9C514.4,166.2,514.4,167.4,514.5,168.8z"/>
		<path class="st1" d="M536.1,309c-3.7-1.7-9-3.5-12-4.9c-3.5-1.6-5.9-5.1-5.9-5.1c-11.5,0-14.3,7.7-14.3,7.7s4.9,2.9,5.3,3.7
			c0.4,0.7,2.2,4.2,3.8,7.9c1.4,3.2,4.3,6.9,6.1,8.4c4-5,11.2-12.8,14-14.8C534.2,311.1,535.2,310.1,536.1,309z"/>
		<path class="st1" d="M534.4,336.5c-0.2,0.3-0.3,0.5-0.5,0.8c1.2,0.3,2.2,0.5,2.5,0.5c1.1,0,1.3-2.9,2.7-2.9c1.5,0,0.7-3.7,2.6-3.8
			c1.8-0.2,3.5-4,3.5-4s2.4-0.9,3.1-1.6c0.5-0.5-0.3-2-1.5-3.3C543.5,325.9,537.1,332.2,534.4,336.5z"/>
		<path class="st3" d="M536.3,577.7c-0.6-1.7-2.3-3.8-2.8-4.7c-1.1-1.8-1.8-5.7-2-7.5c0-0.4-0.2-0.9-0.4-1.5
			c-0.7-2.4-2.4-6.1-2.9-8.8c-0.7-3.3-0.7-4.8-1.6-7.1c-0.9-2.4-2.7-8.2-2.7-9.2c0-0.9-1.1-28.6-1.1-39.9
			c3.5-15.6,0.2-26.6-0.7-31.5c-0.9-4.9,1.3-26.4,1.8-32c0.4-4.4,1-17.1,1.2-22.7c-7.3,0.3-28.4,0-32.3,0c0.5,8.5,1,18.3,1,20.3
			c0,3.8,1.5,14.1,1.5,25.8c0,11.7,2.4,26.7,2.9,33.1c0.5,6.4,12.3,46.1,14.3,51.3c2,5.1,1.1,4.8-0.2,9.5c-1.3,4.8,2.7,8.6,2.7,8.6
			s-0.2,5.7-0.2,6.8c0,0.7,0,1.4-0.1,3.8c0,1.2-0.1,2.8-0.1,5c-0.2,6.8,4,4.4,4.9,3.7c0.9-0.7,7.7-1.1,13.9-0.5c2.6,0.2,3.2-0.7,3-2
			C536.4,578,536.3,577.8,536.3,577.7z"/>
		<path class="st3" d="M640.6,573.5c-1-0.6-2.3-1.3-3.9-2.2c-6.4-3.7-16.5-10.8-19.2-13.4c-2.7-2.6-5.1-5.3-5.9-10.4
			c-0.7-5.1-5.5-40.3-5.7-46.3c-0.2-6-6.6-42.5-7.7-44.7c-1.1-2.2-2.2-15-3.5-20.9c-1.2-5.8-4.1-16.2-6.1-23.4
			c-2.5,0-23.3,0.1-40.4,0.2c2.9,8.4,10.2,28.4,14.5,32.7c4.5,4.5,7.7,10.8,8.8,17.6c1.1,6.8,0.9,28.7,8.1,42.1
			c7.1,13.4,8.4,17.9,11.4,28.2c2.9,10.3,3.1,15.7,3.1,19.6c0,2.7,0,6.3,0,8.3c0,0.9,0,1.4,0,1.4s1.3,4.4,11.4,9.7
			c10.1,5.3,13.5,7.3,16.1,8.6c2.6,1.3,8.1,5.9,15.7,0.2C643,576.6,643.4,575.4,640.6,573.5z"/>
		<path class="st3" d="M553.9,308.3c0,0-11.5-7-13.2-6.8c0,0-2,4.2-4.7,7.5c-0.9,1.1-1.9,2.1-2.8,2.8c-2.8,2-10.1,9.9-14,14.8
			c-1.4,1.8-2.4,3.2-2.6,3.8c-0.9,2.6-3.7,10.8-2.2,11.2c1.5,0.4,3.7-2.2,3.7-2.2s-2,3.8,0.4,4.8c2.4,0.9,3.5-1.8,4.8-4.6
			c1.3-2.7,1.3-2.7,1.3-2.7s-2.2,7.3,0.7,7.1c2.9-0.2,3.8-4.9,3.8-4.9s1.5,3,4.8-1.8c0.2-0.2,0.3-0.5,0.5-0.8
			c2.7-4.4,9.1-10.7,12.4-14.4c1.1-1.3,1.9-2.3,2-2.8C549.4,317.3,553.9,308.3,553.9,308.3z"/>
		<path class="st4" d="M536.4,578.1c0.3,1.3-0.3,2.2-3,2c-6.2-0.6-13-0.2-13.9,0.5c-0.9,0.7-5.1,3.1-4.9-3.7c0.1-2.2,0.1-3.8,0.1-5
			c0,0-0.1-0.1-0.1-0.1c0,0-0.7,9.5-0.7,11.8c0,2.3-2.1,7.3,11.2,7.2c13.3-0.1,13.6-5.4,12.8-7.8C537.5,582.2,537,580.3,536.4,578.1
			z"/>
		<path class="st4" d="M536.3,577.7c-0.9-3.5-1.9-7.4-2.1-7.9c-0.3-0.7-2.8-6.3-2.8-6.3s-0.1,0.2-0.3,0.4c0.2,0.6,0.3,1.1,0.4,1.5
			c0.2,1.8,0.9,5.7,2,7.5C534,573.9,535.7,576,536.3,577.7z"/>
		<path class="st4" d="M640.8,573.6c-0.1,0-0.2,0-0.2,0c2.8,1.9,2.4,3-3.3,7.3c-7.7,5.7-13.2,1.1-15.7-0.2c-2.6-1.3-6-3.3-16.1-8.6
			c-10.1-5.3-11.4-9.7-11.4-9.7s0-0.5,0-1.4c-0.3-0.1-0.5-0.1-0.5-0.1s-1.7,9.9,0.6,14.7c2.4,4.9,4.9,3.6,7.9,5.7
			c3,2.1,7.8,6.8,7.8,7.2c0,0.5,3.4-0.1,3.4-0.1l1.6-2.6l-1.6-4.6c0,0,9.3,1.5,12.4,4.5c3,3,3.9,5.1,10.2,5.5
			c6.2,0.4,18.9-4.6,20.3-9.6C657.7,576.5,651.9,575.3,640.8,573.6z"/>
		<path class="st4" d="M542,149.8l0,4c0,0,3.1,3.1,6.8,6.6c-0.5-1.9-1.2-4.6-2.2-8.5c-1.4-5.4-1.7-8.9-1.6-10.9
			C544.5,144.4,543.4,147.3,542,149.8z"/>
		<path class="st4" d="M592.4,263.1c0-4.6-0.5-32-1.1-35.5c-0.5-3.5-5.3-34.4-6.8-40.5c-1.5-6-2.4-13.9-7.1-13.2
			c-4.9-3.3-18.9-5.3-20.2-5.5c1.8,1.7,3.2,3,3.4,3.1c4.7,2.8,3.6,3.6,3.6,3.6c-0.6,0.1-4.5,1-9.6-0.8c-5.1-1.8-6.6-0.2-5.9,1.1
			c0.7,1.3-1.6,3.3-3.3,4.2c-1.6,0.9-2.4,2.9-2.7,4.9c-0.4,2-1.5,2.9-2.7,4.6c-1.3,1.6-5.7,19-6.2,23.4c-0.5,4.4-4,24.2-4,24.2
			s-2.6-8.8-2.9-9.7c-0.4-0.9-7.1-22.9-7.5-25.8c-0.4-2.9-3.6-13.9-3.6-13.9s-6.9-7.3-9.8-8.8c-2.9-1.5,1.3-4.4,1.3-4.4
			s-8.7,3.6-12.2,3.6c-3.5,0-2-0.4-2-0.4s3.1-2.9,5.2-4.8c-8.7,4.4-21.1,13.6-23.8,16.8c-3.3,3.8-11.4,51.1-11.4,63.5
			c0,12.5,22.9,47.4,22.9,47.4l-6.6,24.5c-1.8,9.7,5.1,38.5,7.7,49.4c2.6,11,5.1,38.5,5.1,38.5s0.2,0,0.6,0c3.8,0,24.9,0.3,32.3,0
			c0.5,0,0.9,0,1.2-0.1c2.4-0.1,11.5-0.2,22.1-0.3c17.1-0.1,37.9-0.2,40.4-0.2c0.2,0,0.3,0,0.3,0s-2-12.6-2-15
			c0-2.4-3.5-14.1-3.8-19.2c-0.4-5.1-3.8-18.7-3.8-24.5c0-5.9-0.5-7.5-2.2-10.8c-1.6-3.3-1.3-3.7-1.3-9.2c0-5.5-4-11.2-4-11.2
			c0.7-2.7,0-9.5-1.8-11c0.5-0.5,2.4-3.7,2.4-3.7l-0.5-4.6c0,0,10.6-15.9,13-19.6C587.1,279.8,592.4,267.7,592.4,263.1z
			 M548.8,319.3c-0.1,0.5-0.9,1.5-2,2.8c1.2,1.3,1.9,2.8,1.5,3.3c-0.7,0.7-3.1,1.6-3.1,1.6s-1.6,3.8-3.5,4c-1.8,0.2-1.1,3.8-2.6,3.8
			c-1.5,0-1.6,2.9-2.7,2.9c-0.4,0-1.3-0.2-2.5-0.5c-3.3,4.8-4.8,1.8-4.8,1.8s-0.9,4.8-3.8,4.9c-2.9,0.2-0.7-7.1-0.7-7.1s0,0-1.3,2.7
			c-1.3,2.7-2.4,5.5-4.8,4.6c-2.4-0.9-0.4-4.8-0.4-4.8s-2.2,2.6-3.7,2.2c-1.5-0.4,1.3-8.6,2.2-11.2c0.2-0.7,1.2-2.1,2.6-3.8
			c-1.8-1.6-4.7-5.2-6.1-8.4c-1.6-3.7-3.5-7.1-3.8-7.9c-0.4-0.7-5.3-3.7-5.3-3.7s2.7-7.7,14.3-7.7c0,0,2.4,3.5,5.9,5.1
			c3,1.4,8.3,3.1,12,4.9c2.6-3.3,4.7-7.5,4.7-7.5c1.6-0.2,13.2,6.8,13.2,6.8S549.4,317.3,548.8,319.3z"/>
		<path class="st5" d="M560.5,171.6c-0.2-0.1-1.5-1.4-3.4-3.1c-2.3-2.2-5.5-5.3-8.3-8c-3.7-3.6-6.8-6.6-6.8-6.6l0,0c0,0,0,0,0,0
			c0,0.4-0.1,3.5-0.1,8.2c0,1.6-0.1,3.3-0.2,5.1c-0.2,3.8-0.6,7.6-1,9.2c-0.5,2.4-4,2.7-6,6.8c-2,4-7.7,12.6-7.7,12.6
			s-6.8-13.6-8.4-15.2c-1.6-1.6-3.7-2.6-3.7-2.6s-0.3-5.2-0.5-9.2c-0.1-1.4-0.1-2.6-0.1-3.4c0-2.2,0-5.8-0.1-7.9c0-1,0-1.6,0-1.6
			s-2.3,4.8-4.5,7c-2.2,2.2-8.4,7.1-10.1,8.4c-0.4,0.3-1,0.8-1.6,1.4c-2.2,1.9-5.2,4.8-5.2,4.8s-1.5,0.4,2,0.4
			c3.5,0,12.2-3.6,12.2-3.6s-4.2,2.9-1.3,4.4c2.9,1.5,9.8,8.8,9.8,8.8s3.2,11,3.6,13.9c0.4,2.9,7.1,24.9,7.5,25.8
			c0.4,0.9,2.9,9.7,2.9,9.7s3.5-19.8,4-24.2c0.5-4.4,4.9-21.8,6.2-23.4c1.3-1.6,2.4-2.6,2.7-4.6c0.4-2,1.1-4,2.7-4.9
			c1.6-0.9,4-2.9,3.3-4.2c-0.7-1.3,0.7-2.9,5.9-1.1c5.1,1.8,9,0.9,9.6,0.8C564.1,175.1,565.2,174.4,560.5,171.6z"/>
		<path class="st3" d="M508.1,137.1c0.8,0.4,1.6,1.2,1.6,1.2s-0.3,7.9,3.9,14.5c0.7,1.1,1.5,2.1,2.4,3.1c0.4,0.8,2.6,2.6,5.1,4.9
			c2.6,2.4,6.7,2.8,8.7,2.8c1.3,0,7.2-3,11.7-9.6c0.5-0.8,1-1.6,1.5-2.5c1.5-2.7,2.6-5.8,3.2-9.4c0.1-0.8,0.3-1.6,0.3-2.5
			c5.1-3.6,4.9-4.9,5.5-6.3c0.6-1.4,4.2-8.9,1.6-9.9c-0.8-0.3-1.5-0.2-2.2,0.1c-0.6,2.1-5.7,7.4-5.9,6.9c-0.2-0.6,3.6-9.4,2.4-15.9
			c-0.2-1-4.2-2.2-7.9-3.2c-3.8-1-17.6-7.9-17.6-7.9c-4,2.4-8.5,4.2-9.3,6.1c-0.8,2-3.1,9.5-3.4,11.7c-0.3,2.4-0.2,4.3-0.3,8.3
			c0,1.1-3-3.1-3.7-6.5c-0.9,0-4,0.3-1.7,5.7C506.3,137.1,507.3,136.7,508.1,137.1z"/>
		<path class="st4" d="M505.9,123c0.7,3.4,3.6,7.6,3.7,6.5c0.1-4,0-5.9,0.3-8.3c0.3-2.2,2.6-9.7,3.4-11.7c0.8-2,5.3-3.8,9.3-6.1
			c0,0,13.8,6.9,17.6,7.9c3.8,1,7.7,2.2,7.9,3.2c1.3,6.5-2.6,15.3-2.4,15.9c0.2,0.6,5.3-4.8,5.9-6.9c0-0.1,0.1-0.2,0.1-0.3
			c0-1.8,1.8-32.6-23.5-31.5c-25.3,1.2-22.4,26.3-22.4,29.9C505.7,122.1,505.8,122.6,505.9,123z"/>
	</g>
	<g>
		<path class="st6" d="M407.6,178.5c-1.1-4.9-4.9-21.5-4.5-23.2c0.4-2,0.4-2,0.4-2l3.2-5.5c-1.1-1.4-2.2-2.8-3.3-3.9
			c-0.9-1-1.8-1.7-2.5-2c0,0,0,0-0.1,0l0,0c-0.4,0-0.8,0-1.3,0.1c-0.1,0-0.3,0.1-0.4,0.1c0,0,0,0-0.1,0c0,0-0.1,0-0.1,0.1
			c-0.7,0.4-1.5,1.1-2.5,2c-1,1-2.1,2.2-3.2,3.5l3.3,6.1l-5.4,31.1l-0.1,0.5l6.7,40.7l10.2-46.3
			C407.9,179.8,407.8,179.3,407.6,178.5z"/>
		<path class="st6" d="M401.3,141.9c-0.1,0-0.2,0-0.4-0.1c0,0,0,0,0,0c0,0,0,0,0,0C401.1,141.8,401.2,141.9,401.3,141.9z"/>
		<path class="st1" d="M418.6,113.9c0,0-9.6,8.9-12.6,9.8c-3,0.8-9.1,0.3-13.2-0.7c-4.1-1-12-10.6-12-10.6s0,1.2,0,2.9
			c0,1.5,0,3.3,0,5.1c0,0.1,0,0.2,0.1,0.3c1.7,5.7,14.3,17.7,14.3,17.7l0.9,0.9l3,2.8c0,0,0.1,0,0.2,0c0,0,0,0,0,0
			c0.1,0,0.3-0.1,0.4-0.1c0.4-0.1,0.9-0.1,1.3-0.1l0,0c0,0,0,0,0,0l0,0l2.8-2.8c0,0,10.7-12.2,13.8-17.2c0,0,0,0,0-0.1
			c0.4-0.6,0.6-1,0.7-1.4c0.1-0.2,0.2-0.3,0.2-0.3c0.2-2.7,0.2-4.9,0.2-5.8C418.6,114.1,418.6,113.9,418.6,113.9z"/>
		<path class="st1" d="M385.1,287.4c-3.1,2.9-11.3,11-11.3,11.7c0,0.8,2,6.2,4.8,7.8c1-0.9,3-1.2,4.9-2.1c2.9-1.5,11.2-8.2,11.7-9.3
			c0.5-1.1,0.5-7,0.5-7s-3.5-0.4-7-0.4C387.7,288.2,386.4,287.9,385.1,287.4z"/>
		<path class="st3" d="M377.3,97.7c0,0,1.7,8.7,1.7,11.1c0,1,0,3.4,0.1,6c0-1.9,0-3.2,0-3.2s8.6,10.6,13.1,11.6
			c4.5,1.1,11.1,1.7,14.4,0.8c3.3-0.9,13.8-10.7,13.8-10.7s0,0.1,0,0.4c0.1-0.6,0.1-1,0.1-1s2.2-11.7,2.2-14.9
			c3.3,0.6,4.8-3.2,5.1-5.6c0.3-2.4,3.2-13.8-0.5-12.6c0,0-0.1,0-0.1,0c-1.4,3.4-4.9,10-5,9.6c-0.1-0.5-1.3-6.6-1.3-9
			c0-2.4-0.6-10.1-0.9-15c-0.3-5-3.8-5-6.8-3.9c-3,1.1-12.9,1.7-19.4,1.7S381.2,62,381.2,62s-2,4.8-2.6,6.2
			c-0.6,1.4-0.6,10.4-0.5,14.4c0.2,4.1-0.6,11-1.5,9.2c-0.9-1.8-3.3-8.7-5.1-12.5c0,0,0,0,0,0c-0.9,0.3-1.6,1.1-1.5,2.9
			c0.1,4.8,1.7,8,1.7,10.7c0,2.7-0.3,3.2,2.5,4.7C375.2,97.9,377.3,97.7,377.3,97.7z"/>
		<path class="st3" d="M414,282.2c0,0-5.7-0.9-9.2-1.6c-3.5-0.7-4.8-2.4-8.1-0.9c-3.3,1.5-8.8,0.5-10.8,0.5c-2,0-8.2-4-7.7,0.5
			c0.4,3.2,3.6,5.6,6.8,6.8c1.3,0.5,2.6,0.8,3.7,0.8c3.5,0,7,0.4,7,0.4s0,5.9-0.5,7c-0.5,1.1-8.8,7.9-11.7,9.3
			c-1.9,0.9-3.9,1.2-4.9,2.1c-0.5,0.5-0.8,1.2-0.4,2.3c0.9,3.1,3.1,3.3,3.1,3.3s0.9,5.1,4.8,5.3c2,2,7.7,3.8,8.8,3.7
			c2.2,1.6,5.9,2.2,9,0.4c3.1-1.8,5.1-5.3,8.6-7c3.5-1.6,7-5.5,7.9-7.3c0.9-1.8,2.4-4.9,4.2-6.6c1.8-1.6,3.5-2.6,3.5-2.6
			S423,284.7,414,282.2z"/>
		<path class="st4" d="M331.7,577.6c0,0,2.8,1.2,5.5,1.8s4.8,6.8,14.8,8.5s17.5,2.8,17.5,2.8s4.2-6.5,6-10s0.6-8.1,0.6-8.1
			c-1.1-3.5-1.7-4.5-1.7-6.1c0-1.6-1.5-5.3-3.2-10.6c-1.7-5.3-4.9-13.1-4.9-13.1s5.4-4.8,5-12.8c-0.4-8.1-1.2-25.4-0.4-28.6
			c0.8-3.2,3.4-23.6,3-25.6c-0.4-2,2.1-11.8,1.8-15.5c0,0,6.9-48.3,7.8-53.3c0.9-4.9,8.1-36.5,8.8-38.6c0.7-2.1,1.9-4.3,1.9-4.3
			s1.8-0.5,2.8,3.3c1,3.8,1.9,7.5,1.8,13.5c-0.1,6,3.7,35.1,4.4,44.3c0.7,9.2,3.6,32.8,4.4,35.8c0.8,3,1.6,3.6,1.7,5.1
			c0.2,1.6-1.5,4.3-0.5,7.1c0.9,2.8,1.2,3.2,0.6,5.9c-0.5,2.7,0.3,8,0.8,11.9c0.5,3.9-0.6,9.1-0.4,12.8c0.3,3.8-2.4,27.2-1.3,33.1
			c1.1,5.9,0.8,13.4,3.7,18.4c2.8,5,4.4,4.9,2.3,8.9c-2.1,3.9-2,5-3.3,5.9c-1.3,0.8-6.2,1.5-4.3,6.6c0,0,3.1,9.2,2.9,10.5
			s9.2,1.5,18.8,0.2s18.8-6.5,19.2-8s-1.2-8.2-1.2-8.2c0.6-4.2,1.6-2.8,0.7-7.1c-0.8-4.2,0.5-7.6,1-14.3c0.5-6.7,0.1-26.3-0.1-28
			c-0.2-1.7,2.6-24.2,2.7-31.4c0.1-7.2-0.3-19.1-0.8-23.2c-0.5-4-1.1-40.9-1.1-47.8c0-6.9,2.7-34.3,3.1-39.7
			c0.4-5.4,0-13.8,0.6-18.2c0.6-4.4,1-7.4,1-7.4s1.7,1.4,1.2-4.3c-0.5-5.7-1.8-16.9-1.8-22.2c0-5.3,0.5-4.1,0.6-8.2
			c0.2-4.1-1-13-1.8-17.2c-0.8-4.2-0.9-8-0.9-8s6.2-8.6,10.1-11.7c3.8-3.1,8.1-8.8,10-12.6c1.8-3.8,7.5-15.5,8-22.2
			c0.5-6.8,0.1-7.6,1.2-12.2c1.1-4.6,1-8.7,0.7-11.7c-0.3-3-3.6-22.7-3.8-27.7c-0.3-5-2.2-10.7-3.9-13.5s-1.1-5.1-1.5-7.9
			c-0.4-2.7-1.8-5.5-2-8.3c-0.2-2.8,0.5-4.7-0.8-6.6c-1.3-1.9-4-5.3-3.9-7.9c0.1-2.6,1.2-7.5-3-6.6c-5.1-2.7-28.2-10.4-29.6-10.9
			c-1.4-0.5-8.4-3.4-8.4-3.4l-4.8-7.6l-0.4-1.6c0.1,1.3,0.2,3.1,0.2,3.1s0.2,5.4-0.9,7.7c-1.1,2.3-4.5,16.3-5.1,18.5
			c-0.1,0.4-0.4,2-0.9,4.3c-2.7-5.2-5.4-9.4-7.9-11.6c-0.8-0.7-1.5-1.1-2.3-1.4c-0.1,0-0.1-0.1-0.2-0.1c-0.1,0-0.3-0.1-0.4-0.1
			c-0.1,0-0.2,0-0.4-0.1c0,0,0,0,0,0c0,0-0.1,0-0.1,0l0,0c0,0,0,0,0,0c0,0,0,0,0,0c0,0,0,0,0.1,0c0.7,0.3,1.6,1,2.5,2
			c1.1,1.1,2.2,2.4,3.3,3.9c2.1,2.8,4.2,5.8,5.3,7.5c-1.1,5.4-2.8,14.8-4.5,23.2c0.2,0.8,0.3,1.3,0.3,1.3l-10.2,46.3l-6.7-40.7
			l0.1-0.5c-0.5-3.2-0.9-5.5-1.1-6.1c-0.4-2-2.7-12.7-4.5-21.2c1.5-2,4.6-6.3,7.7-9.9c1.1-1.3,2.2-2.5,3.2-3.5c1-0.9,1.8-1.7,2.5-2
			c0,0,0.1,0,0.1-0.1c0,0,0,0,0.1,0c0,0,0,0,0,0c0,0-0.1,0-0.2,0c-0.2,0-0.4,0-0.6,0.1c-0.9,0.2-1.9,0.9-3,1.7
			c-3.2,2.6-7.1,7.7-10.1,13.3c-1.2-5.4-2.2-9.8-2.5-10.5c-0.8-1.8-2.6-10.2-3-12.6c-0.4-2.4-1.9-11.7,0.1-13.7
			c-0.5,0.4-1.5,1.2-1.9,2c-0.5,1.1-3.1,3.2-4.5,4.2c-1.4,1-3.4,2-4.6,2.5c-1.2,0.5-12.9,4.8-15.9,5.6c-3,0.8-18.5,5.1-18.5,5.1
			s-1.8-1.8-3.5,0.8c-1.6,2.7-1.5,7.5-2.8,10.6c-1.4,3.1-2.3,4.9-3.3,8.1c-1,3.3-5.3,19-6.3,24c-1,4.9-1.2,12.3-1.5,15.8
			c-0.3,3.6-2.1,21.5-2.1,24.7s-0.1,16.1,0.3,19.8c0.4,3.7,1.2,10.9,6,16.7c4.9,5.8,17.2,24.5,18.7,25.7c1.5,1.2,1.3,1.9,1.3,1.9
			s-1.7,14.9-1.7,20.2c0,5.3-1.2,13.7-1.7,16c-0.5,2.3-3.7,17.9-4.1,21c-0.5,3.1-1.1,5.3,0.1,6.1c-0.3,3.7-0.3,10.1-0.3,12.8
			c0,2.7,1.9,35.5,2,41.3c0.1,5.8,0.8,7.6,0.5,12.4c-0.4,4.8,0,9.9-0.2,13.3c-0.2,3.4-0.1,19.9-0.4,23.7s-3,17.9-3,21
			c0,3.1-0.8,20.4-0.3,25.5c0.5,5.1,0.7,17.3,0.9,19.5c0.2,2.2,0,14.9,0,17.7c0,2.7,0.2,13.8,0.3,14.8c0.1,1,1.6,3.7,2.7,5
			c1.2,1.4,1.7,2.7,1.7,2.7s-0.8,0.6-1.9,1.5C331.4,565.9,331.7,577.6,331.7,577.6z M424.5,301c-1.8,1.6-3.3,4.8-4.2,6.6
			c-0.9,1.8-4.4,5.7-7.9,7.3c-3.5,1.6-5.5,5.1-8.6,7c-3.1,1.8-6.8,1.3-9-0.4c-1.1,0.2-6.8-1.6-8.8-3.7c-3.8-0.2-4.8-5.3-4.8-5.3
			s-2.2-0.2-3.1-3.3c-0.3-1.1-0.1-1.8,0.4-2.3c-2.8-1.6-4.8-7-4.8-7.8c0-0.7,8.3-8.8,11.3-11.7c-3.1-1.1-6.4-3.5-6.8-6.8
			c-0.5-4.6,5.7-0.5,7.7-0.5c2,0,7.5,0.9,10.8-0.5c3.3-1.5,4.6,0.2,8.1,0.9c3.5,0.7,9.2,1.6,9.2,1.6c9,2.6,13.9,16.3,13.9,16.3
			S426.3,299.4,424.5,301z"/>
		<path class="st4" d="M371.6,79.3c1.8,3.8,4.2,10.7,5.1,12.5c0.9,1.8,1.7-5.1,1.5-9.2c-0.2-4.1-0.2-13.1,0.5-14.4
			c0.6-1.4,2.6-6.2,2.6-6.2s6.3,1.1,12.8,1.1s16.4-0.6,19.4-1.7c3-1.1,6.5-1.1,6.8,3.9c0.3,5,0.9,12.6,0.9,15c0,2.4,1.2,8.6,1.3,9
			c0.1,0.4,3.6-6.2,5-9.6c0.1-0.2,0.2-0.4,0.3-0.6c1.2-3.2,0.6-10.7-2.4-16.4c-3-5.7-5.4-6.5-5.4-6.5S419.1,47.2,408,46
			c-11.1-1.2-26.1,0.5-29.9,8.6c-3.8,8.1-6.8,9.2-7.2,13.8C370.5,73,369.8,75.5,371.6,79.3C371.6,79.3,371.6,79.3,371.6,79.3z"/>
		<path class="st5" d="M418.8,121.4c-0.1-0.8-0.2-1.4-0.4-1.4c-0.1,0-0.2,0.1-0.2,0.3c-0.1,0.3-0.4,0.8-0.7,1.4c0,0,0,0,0,0.1
			c-3.2,4.9-13.8,17.2-13.8,17.2l-2.7,2.8c0,0,0.1,0,0.1,0c0,0,0,0,0,0c0.1,0,0.2,0,0.4,0.1c0.1,0,0.3,0.1,0.4,0.1
			c0.1,0,0.1,0,0.2,0.1c0.8,0.3,1.5,0.7,2.3,1.4c2.5,2.2,5.1,6.3,7.9,11.6c0.5-2.3,0.8-3.9,0.9-4.3c0.5-2.2,4-16.2,5.1-18.5
			c1.1-2.3,0.9-7.7,0.9-7.7S418.9,122.7,418.8,121.4z"/>
		<path class="st5" d="M403.5,153.2c0,0,0,0-0.4,2c-0.4,1.7,3.4,18.4,4.5,23.2c1.6-8.4,3.4-17.7,4.5-23.2c-1.1-1.7-3.2-4.8-5.3-7.5
			L403.5,153.2z"/>
		<path class="st5" d="M385.5,157.5c1.9,8.5,4.1,19.2,4.5,21.2c0.1,0.7,0.5,2.9,1.1,6.1l5.4-31.1l-3.3-6.1
			C390.1,151.3,387,155.5,385.5,157.5z"/>
		<path class="st5" d="M395.1,138.4c0,0-12.6-12-14.3-17.7c0-0.1-0.1-0.2-0.1-0.3c0-0.1-0.1-0.2-0.1-0.4l-0.4,0.2l-0.1,0
			c0,0-0.1,0.1-0.1,0.1c-2,2.1-0.5,11.3-0.1,13.7c0.4,2.5,2.2,10.8,3,12.6c0.3,0.7,1.4,5.1,2.5,10.5c3-5.6,6.8-10.7,10.1-13.3
			c1.1-0.9,2.1-1.5,3-1.7c0.2-0.1,0.4-0.1,0.6-0.1l-3-2.8L395.1,138.4z"/>
		<path class="st5" d="M400.8,141.8L400.8,141.8C400.8,141.8,400.8,141.8,400.8,141.8L400.8,141.8z"/>
	</g>
</g>
</svg>
